<svg version="1.1" xmlns="http://www.w3.org/2000/svg" xmlns:xlink="http://www.w3.org/1999/xlink" width="19.96667" height="17.58812" viewBox="0,0,19.96667,17.58812"><g transform="translate(-229.93611,-171.20594)"><g data-paper-data="{&quot;isPaintingLayer&quot;:true}" fill-rule="nonzero" stroke-linecap="butt" stroke-linejoin="miter" stroke-miterlimit="10" stroke-dasharray="" stroke-dashoffset="0" style="mix-blend-mode: normal"><path d="M231.6,180c0,-4.44262 3.7608,-8.04406 8.4,-8.04406c4.63919,0 8.4,3.60145 8.4,8.04406c0,4.44262 -3.7608,8.04406 -8.4,8.04406c-4.63919,0 -8.4,-3.60145 -8.4,-8.04406z" fill="#4e4e4e" stroke="#3f3f3f" stroke-width="1.5"/><path d="M229.93611,180.17856c0,-1.38071 1.11929,-2.5 2.5,-2.5c1.38071,0 2.5,1.11929 2.5,2.5c0,1.38071 -1.11929,2.5 -2.5,2.5c-1.38071,0 -2.5,-1.11929 -2.5,-2.5z" fill="#ffffff" stroke="none" stroke-width="0.5"/><path d="M243.16944,179.0119c0,-1.85935 1.50731,-3.36667 3.36667,-3.36667c1.85935,0 3.36667,1.50731 3.36667,3.36667c0,1.85935 -1.50731,3.36667 -3.36667,3.36667c-1.85935,0 -3.36667,-1.50731 -3.36667,-3.36667z" fill="#ffffff" stroke="none" stroke-width="0.5"/><path d="M230.96944,180.2869c0,-0.55228 0.44772,-1 1,-1c0.55228,0 1,0.44772 1,1c0,0.55228 -0.44772,1 -1,1c-0.55228,0 -1,-0.44772 -1,-1z" fill="#000000" stroke="none" stroke-width="0.5"/><path d="M246.47778,178.97024c0,-0.55228 0.44772,-1 1,-1c0.55228,0 1,0.44772 1,1c0,0.55228 -0.44772,1 -1,1c-0.55228,0 -1,-0.44772 -1,-1z" fill="#000000" stroke="none" stroke-width="0.5"/></g></g></svg>